<svg class="img-fluid" id="outputsvg" xmlns="http://www.w3.org/2000/svg" style="transform: matrix(40, 0, 0, 40, -10.6417, 0); transform-origin: 50% 50%; cursor: move; max-height: none; transition: transform 200ms ease-in-out;" width="320" height="425" viewBox="0 0 3200 4250"><g id="l175oXRZuVCBjF9botm5eaE" fill="rgb(1,83,116)" style="transform: none;"><g style="transform: none;"><path id="pEONnXx8M" d="M1323 3481 c-309 -207 -605 -491 -839 -805 -41 -54 -74 -104 -74 -110 0 -7 204 -257 453 -557 644 -776 579 -703 600 -676 7 9 237 286 512 617 275 331 500 608 500 615 0 23 -136 201 -263 346 -211 240 -510 493 -759 642 -7 4 -62 -26 -130 -72z"></path><path id="pUYruoAIY" d="M138 2033 c-57 -143 -90 -257 -118 -398 -19 -101 -20 -142 -20 -861 l0 -754 1450 0 1450 0 0 706 c0 586 -3 725 -16 813 -26 184 -86 395 -155 548 -29 65 -30 66 -48 47 -10 -10 -285 -347 -611 -749 -326 -401 -600 -738 -610 -748 -16 -18 -44 15 -640 747 -343 421 -626 766 -629 766 -4 0 -28 -53 -53 -117z"></path></g></g></svg>